<svg version="1.1" id="Layer_1" xmlns="http://www.w3.org/2000/svg" xmlns:xlink="http://www.w3.org/1999/xlink" x="0px" y="0px"
	 width="100%" viewBox="0 0 141 82" enable-background="new 0 0 141 82" xml:space="preserve">
<path fill="none" opacity="1.000000" stroke="#000000" stroke-linecap="round" stroke-linejoin="round" stroke-width="3.000000"
	d="
M128.500000,11.500000 
	C128.587296,16.668566 124.663551,20.067230 122.296921,23.873737 
	C114.835602,35.874542 107.133331,47.769497 98.473900,58.979839 
	C97.330582,60.459949 95.911385,61.758961 94.476593,62.972321 
	C93.209549,64.043816 91.601044,65.454536 90.042175,64.884636 
	C87.725151,64.037552 87.890770,61.650829 87.984062,59.499310 
	C88.289330,52.458931 90.702484,45.840420 92.026588,39.005150 
	C92.829636,34.859657 93.390724,30.655352 92.918976,26.509218 
	C92.148636,19.738808 87.846367,15.522652 80.493797,15.110625 
	C70.111519,14.528819 59.127789,21.959743 56.462669,29.987606 
	C54.779701,35.057041 54.940025,39.621868 59.008049,43.491539 
	C62.935364,47.227364 67.463890,46.305355 71.996506,44.987968 
	C72.854256,44.738663 73.666664,44.333328 74.500000,43.999996 
"/>
<path fill="none" opacity="1.000000" stroke="#000000" stroke-linecap="round" stroke-linejoin="round" stroke-width="3.000000"
	d="
M22.500000,57.500000 
	C23.960926,53.278164 27.514671,50.393127 29.553009,46.527954 
	C29.835609,45.992081 30.803873,45.632648 31.504375,45.529816 
	C43.875149,43.713795 50.559006,35.797459 53.967388,24.490170 
	C55.347725,19.910904 54.319691,17.148991 50.340508,13.347633 
	C45.783543,15.193501 44.612823,19.718534 42.495438,23.497444 
	C38.557243,30.525963 34.230049,37.354134 31.500000,45.000000 
"/>
<path fill="none" opacity="1.000000" stroke="#000000" stroke-linecap="round" stroke-linejoin="round" stroke-width="4.000000"
	d="
M8.500000,63.500000 
	C10.166667,63.166668 12.132419,63.290577 13.452375,62.427189 
	C23.429283,55.901272 34.359455,58.923874 45.000050,58.992188 
	C51.409729,59.033337 57.344055,60.511345 62.500000,64.500000 
"/>
<path fill="none" opacity="1.000000" stroke="#000000" stroke-linecap="round" stroke-linejoin="round" stroke-width="3.000000"
	d="
M11.500000,35.500000 
	C13.165452,44.728271 20.038828,47.082081 28.000000,48.000000 
"/>
</svg>