<?xml version="1.0" encoding="UTF-8"?>
<svg version="1.1" xmlns="http://www.w3.org/2000/svg" width="500" height="500">
<path d="M0 0 C0.87207092 0.00215515 1.74414185 0.0043103 2.64263916 0.00653076 C16.73153096 0.06215962 30.50169023 0.66813985 44.375 3.3125 C45.3959375 3.50585938 46.416875 3.69921875 47.46875 3.8984375 C86.69399733 11.61019729 124.42431943 27.73746395 155.375 53.3125 C156.16197266 53.95735352 156.16197266 53.95735352 156.96484375 54.61523438 C168.09801528 63.75938605 179.16734659 73.19496215 188.375 84.3125 C189.19226563 85.24191406 190.00953125 86.17132813 190.8515625 87.12890625 C223.24965281 124.10719603 243.56636532 171.61056209 249.375 220.3125 C249.4692627 221.08682373 249.56352539 221.86114746 249.66064453 222.65893555 C250.61252908 231.58604603 250.61851336 240.5320553 250.625 249.5 C250.62567474 250.34120392 250.62634949 251.18240784 250.62704468 252.04910278 C250.60933678 265.99812475 249.86661893 279.56034706 247.375 293.3125 C247.21402832 294.23385742 247.05305664 295.15521484 246.88720703 296.10449219 C239.15273354 339.0936023 219.88037393 379.27577273 191.375 412.3125 C190.72917969 413.06917969 190.08335937 413.82585937 189.41796875 414.60546875 C177.89407113 427.75989873 165.49626317 439.98086442 151.375 450.3125 C150.24716154 451.15854192 149.11955819 452.00489736 147.9921875 452.8515625 C95.60645251 491.69713897 27.57231044 507.7668941 -36.79296875 498.30078125 C-49.28739603 496.26660822 -61.84352957 494.04158498 -73.625 489.3125 C-71.92445618 484.57527079 -69.47721415 480.35965508 -67 476 C-65.1995985 472.77564754 -63.40989214 469.54546112 -61.625 466.3125 C-61.26035645 465.65314453 -60.89571289 464.99378906 -60.52001953 464.31445312 C-48.60627057 442.49070923 -42.53768735 418.49515495 -36.706604 394.50805664 C-35.3192016 388.80706436 -33.91395487 383.11052242 -32.49921989 377.41625786 C-32.01294883 375.44678019 -31.53609675 373.47519437 -31.06019592 371.50318909 C-30.76906418 370.32272507 -30.47793243 369.14226105 -30.17797852 367.92602539 C-29.9253273 366.8866835 -29.67267609 365.84734161 -29.41236877 364.77650452 C-28.625 362.3125 -28.625 362.3125 -26.625 360.3125 C-26.18671875 360.85777344 -25.7484375 361.40304687 -25.296875 361.96484375 C-10.74232083 379.27056365 9.12296537 388.26367828 31.3125 390.1875 C59.12118355 391.60398247 87.49851448 380.65713702 108.21020508 362.17016602 C110.64189118 359.92740114 113.00826218 357.62379447 115.375 355.3125 C116.08011719 354.66925781 116.78523438 354.02601563 117.51171875 353.36328125 C138.14276681 334.07136816 150.45959224 305.41905358 156.375 278.3125 C156.62056641 277.25651611 156.62056641 277.25651611 156.87109375 276.17919922 C161.71956851 254.74673691 161.80330947 228.63068571 156.375 207.3125 C156.17632324 206.49604004 155.97764648 205.67958008 155.77294922 204.83837891 C148.41905063 175.15286619 133.37338661 146.89646767 109.375 127.3125 C108.43914062 126.5390625 107.50328125 125.765625 106.5390625 124.96875 C87.2209605 109.34843209 64.46173863 99.78595166 40.375 94.3125 C39.2298291 94.04348877 39.2298291 94.04348877 38.06152344 93.76904297 C12.9251155 88.13656349 -16.73651125 89.32292302 -41.625 95.3125 C-42.3998877 95.49441895 -43.17477539 95.67633789 -43.97314453 95.86376953 C-55.41952628 98.64399553 -66.05150439 103.17940881 -76.625 108.3125 C-77.30369141 108.6415332 -77.98238281 108.97056641 -78.68164062 109.30957031 C-91.83780592 115.78436609 -102.97544313 124.22958622 -113.625 134.3125 C-114.96884766 135.55966797 -114.96884766 135.55966797 -116.33984375 136.83203125 C-138.59095588 158.14691145 -152.88039016 188.8331176 -156.625 219.3125 C-156.73585938 220.15296875 -156.84671875 220.9934375 -156.9609375 221.859375 C-160.15525953 250.34927423 -155.91110609 282.54300717 -138.01953125 305.8359375 C-131.2867954 313.97984303 -122.29866263 320.4788023 -111.51171875 321.515625 C-106.19494809 321.62894871 -102.34275837 321.03428367 -97.625 318.3125 C-95.71702857 316.41418919 -94.22557859 314.49510717 -92.625 312.3125 C-93.181875 311.64347656 -93.73875 310.97445313 -94.3125 310.28515625 C-112.80040108 287.01913209 -117.2914418 258.49565782 -114.32470703 229.36376953 C-110.4623819 202.12084691 -97.44961254 177.38167748 -75.625 160.3125 C-47.49045549 139.89505687 -12.08015628 133.43641041 22.00366211 138.83398438 C41.3320994 142.28298134 58.82006471 150.04114956 73.375 163.3125 C74.14199219 163.98667969 74.90898437 164.66085938 75.69921875 165.35546875 C94.87832905 183.19572318 104.24458599 210.2203851 105.50048828 235.87597656 C106.70444133 270.03436301 99.33867242 303.88451797 75.625 329.625 C61.98222732 342.36554523 45.02664424 348.9435009 26.375 348.3125 C14.35395597 346.89239739 2.38977238 342.82038844 -5.625 333.3125 C-13.43173933 320.35229223 -14.88600381 307.10767784 -11.34375 292.4140625 C-9.61980195 285.99072553 -7.63427729 279.65123622 -5.625 273.3125 C-4.53540049 269.80478433 -3.45118858 266.29545242 -2.36914062 262.78540039 C-1.68469172 260.57628147 -0.99246933 258.36954992 -0.29101562 256.16577148 C2.75577954 246.49681318 4.75653304 237.47909368 4.6875 227.3125 C4.67904053 225.99995239 4.67904053 225.99995239 4.67041016 224.66088867 C4.47600766 214.34119589 2.1426954 206.31356045 -4.625 198.3125 C-12.07260502 191.43520708 -20.52191466 190.6881946 -30.28125 190.93359375 C-38.40267968 191.42875959 -46.146061 194.83400724 -52.04296875 200.47265625 C-63.88933609 214.24954272 -68.02239602 231.12187413 -68.0625 248.875 C-68.06564209 250.03797607 -68.06878418 251.20095215 -68.07202148 252.39916992 C-67.91832956 263.83956433 -65.8809468 274.67441138 -63.19750977 285.76489258 C-62.91411743 287.02595825 -62.91411743 287.02595825 -62.625 288.3125 C-62.29759575 289.57549171 -62.29759575 289.57549171 -61.96357727 290.86399841 C-61.50265372 295.55863011 -62.52290033 299.48528324 -63.63525391 304.03613281 C-63.86116211 304.99986313 -64.08707031 305.96359344 -64.31982422 306.95652771 C-65.06994447 310.14546515 -65.8359095 313.33038468 -66.6015625 316.515625 C-67.13024652 318.75377804 -67.6577642 320.99220687 -68.18417358 323.230896 C-69.57657607 329.14154289 -70.98167158 335.0490925 -72.39038086 340.95587158 C-74.62602759 350.33577793 -76.84572988 359.71944024 -79.0593071 369.10457611 C-79.82555939 372.34322019 -80.59914117 375.58004261 -81.37368774 378.81671143 C-83.9351605 389.58980187 -86.30412651 400.38044187 -88.40429688 411.25366211 C-88.60964365 412.31563686 -88.81499043 413.37761162 -89.02655983 414.47176743 C-92.12509139 430.86596825 -92.91177105 446.84521271 -92.75 463.5 C-92.73992936 465.34048981 -92.73081088 467.18098508 -92.72265625 469.02148438 C-92.70101373 473.4519625 -92.6667199 477.88216735 -92.625 482.3125 C-98.39877859 480.51952446 -103.81214915 478.45232198 -109.1875 475.6875 C-109.86949463 475.33977539 -110.55148926 474.99205078 -111.25415039 474.63378906 C-113.38410635 473.5383971 -115.50579807 472.42854103 -117.625 471.3125 C-118.28983398 470.96413086 -118.95466797 470.61576172 -119.63964844 470.25683594 C-134.7537906 462.26313408 -148.68339448 452.47902087 -161.625 441.3125 C-162.76001953 440.34376953 -162.76001953 440.34376953 -163.91796875 439.35546875 C-177.06932767 427.83426153 -189.30594178 415.4397337 -199.625 401.3125 C-200.48306152 400.16144983 -201.34113451 399.01040823 -202.19921875 397.859375 C-208.23797189 389.66663506 -213.57213163 381.1415998 -218.625 372.3125 C-219.28113281 371.18972656 -219.93726563 370.06695312 -220.61328125 368.91015625 C-240.58499317 333.32929073 -250.11961603 291.86436951 -249.9375 251.25 C-249.93567719 250.40010498 -249.93385437 249.55020996 -249.93197632 248.67456055 C-249.88175051 234.70295241 -249.1349647 221.08365689 -246.625 207.3125 C-246.46402832 206.39259277 -246.30305664 205.47268555 -246.13720703 204.52490234 C-236.51073493 151.01059491 -207.84478174 97.31653722 -165.625 62.3125 C-164.73039062 61.5184375 -163.83578125 60.724375 -162.9140625 59.90625 C-148.8976068 47.53612124 -133.04779712 37.20183743 -116.625 28.3125 C-115.88217773 27.90966797 -115.13935547 27.50683594 -114.37402344 27.09179688 C-79.27185025 8.43961053 -39.56241696 -0.17746101 0 0 Z " fill="#000000" transform="translate(249.625,-0.3125)"/>
</svg>
